<svg width="128" height="144" viewBox="0 0 128 144" fill="none" xmlns="http://www.w3.org/2000/svg">
<path d="M125.366 66.8894C124.891 66.4022 124.352 65.9823 123.763 65.6414L11.5859 0.990947C6.67641 -1.82638 0.544622 1.69628 0.544622 7.36426V136.647C0.537494 137.634 0.733076 138.612 1.1193 139.521C1.50553 140.429 2.07421 141.25 2.79027 141.931C5.02123 144.064 8.53465 144.764 11.5818 142.997L123.758 78.3641C124.73 77.8072 125.561 77.0359 126.189 76.1089C126.816 75.182 127.223 74.124 127.377 73.0161C127.532 71.9082 127.431 70.7796 127.081 69.7168C126.732 68.6539 126.143 67.685 125.361 66.8841L125.366 66.8894ZM18.5152 93.8667C18.5157 94.3021 18.4302 94.7334 18.2635 95.1358C18.0967 95.5382 17.8521 95.9038 17.5436 96.2117C17.2351 96.5196 16.8688 96.7637 16.4657 96.9301C16.0625 97.0965 15.6304 97.1819 15.1941 97.1814H14.6491C14.2113 97.184 13.7774 97.1002 13.3722 96.9348C12.967 96.7694 12.5987 96.5256 12.2882 96.2175C11.9778 95.9095 11.7315 95.5432 11.5635 95.1397C11.3955 94.7363 11.3091 94.3036 11.3093 93.8667V50.1335C11.3105 49.697 11.3979 49.2651 11.5664 48.8624C11.735 48.4596 11.9813 48.094 12.2915 47.7863C12.6016 47.4786 12.9694 47.2349 13.374 47.0691C13.7785 46.9034 14.2118 46.8188 14.6491 46.8202H15.1941C16.0743 46.8216 16.918 47.1711 17.5404 47.7921C18.1629 48.4131 18.5134 49.2551 18.5152 50.1335V93.8667ZM33.6576 88.488C33.6562 89.3668 33.3056 90.2092 32.6828 90.8303C32.06 91.4515 31.2157 91.8007 30.3352 91.8014H29.7902C28.9071 91.8039 28.0593 91.4562 27.433 90.8349C26.8067 90.2135 26.4533 89.3694 26.4504 88.488V55.5228C26.4504 54.6388 26.8023 53.7909 27.4286 53.1658C28.055 52.5407 28.9044 52.1895 29.7902 52.1895H30.3352C31.2183 52.1923 32.0641 52.545 32.6866 53.1701C33.3091 53.7952 33.6574 54.6415 33.655 55.5228L33.6576 88.488ZM48.8014 96.6854C48.8 97.564 48.4497 98.4063 47.8271 99.0276C47.2046 99.6489 46.3607 99.9986 45.4804 100H44.9353C44.0523 100.003 43.2044 99.6549 42.5781 99.0335C41.9518 98.4122 41.5984 97.568 41.5956 96.6867V47.3255C41.5956 46.4414 41.9474 45.5936 42.5738 44.9685C43.2001 44.3434 44.0496 43.9922 44.9353 43.9922H45.4804C46.3635 43.995 47.2094 44.3477 47.8322 44.9727C48.4549 45.5978 48.8036 46.444 48.8014 47.3255V96.6854ZM63.9439 89.416C63.9444 89.8515 63.8589 90.2827 63.6922 90.6851C63.5254 91.0875 63.2808 91.4531 62.9723 91.761C62.6638 92.0689 62.2975 92.3131 61.8944 92.4795C61.4912 92.6459 61.0591 92.7312 60.6228 92.7307H60.0778C59.64 92.7333 59.2061 92.6495 58.8009 92.4841C58.3957 92.3187 58.0273 92.075 57.7169 91.7669C57.4065 91.4588 57.1602 91.0925 56.9922 90.689C56.8242 90.2856 56.7378 89.853 56.738 89.416V54.5775C56.7392 54.141 56.8266 53.7091 56.9951 53.3064C57.1637 52.9036 57.41 52.5379 57.7202 52.2303C58.0303 51.9226 58.3981 51.6789 58.8027 51.5131C59.2072 51.3473 59.6405 51.2627 60.0778 51.2642H60.6228C61.503 51.2656 62.3467 51.6151 62.9691 52.2361C63.5916 52.8571 63.9421 53.699 63.9439 54.5775V89.416ZM79.0863 92.8747C79.0877 93.3112 79.003 93.7436 78.8369 94.1474C78.6708 94.5511 78.4266 94.9182 78.1184 95.2278C77.8101 95.5373 77.4437 95.7832 77.0402 95.9514C76.6367 96.1196 76.2039 96.2068 75.7666 96.208H75.2042C74.3211 96.2052 73.4754 95.8525 72.8528 95.2274C72.2303 94.6023 71.882 93.7561 71.8845 92.8747V51.1201C71.8862 50.2418 72.2365 49.3999 72.8587 48.7787C73.4808 48.1575 74.3242 47.8076 75.2042 47.8055H75.7666C76.6467 47.8073 77.4903 48.1571 78.1125 48.7784C78.7347 49.3996 79.0849 50.2417 79.0863 51.1201V92.8747ZM94.2301 80.7707C94.2306 81.2062 94.1451 81.6374 93.9784 82.0398C93.8117 82.4422 93.5671 82.8078 93.2586 83.1157C92.9501 83.4236 92.5838 83.6678 92.1806 83.8342C91.7774 84.0005 91.3453 84.0859 90.9091 84.0854H90.348C89.9117 84.0859 89.4796 84.0005 89.0764 83.8342C88.6733 83.6678 88.307 83.4236 87.9985 83.1157C87.69 82.8078 87.4454 82.4422 87.2787 82.0398C87.112 81.6374 87.0264 81.2062 87.0269 80.7707V63.2401C87.0248 62.3586 87.3734 61.5124 87.9962 60.8874C88.6189 60.2623 89.4648 59.9096 90.348 59.9068H90.9091C91.7922 59.9096 92.6382 60.2623 93.2609 60.8874C93.8836 61.5124 94.2322 62.3586 94.2301 63.2401V80.7707ZM109.373 73.8374C109.371 74.7159 109.02 75.5578 108.398 76.1788C107.775 76.7998 106.932 77.1493 106.052 77.1507H105.49C104.61 77.1493 103.767 76.7998 103.144 76.1788C102.522 75.5578 102.171 74.7159 102.169 73.8374V70.1708C102.169 69.7353 102.254 69.3041 102.421 68.9017C102.588 68.4993 102.832 68.1337 103.141 67.8258C103.449 67.5179 103.816 67.2737 104.219 67.1074C104.622 66.941 105.054 66.8556 105.49 66.8561H106.052C106.488 66.8556 106.92 66.941 107.323 67.1074C107.726 67.2737 108.093 67.5179 108.401 67.8258C108.71 68.1337 108.954 68.4993 109.121 68.9017C109.288 69.3041 109.373 69.7353 109.373 70.1708V73.8374Z" fill="url(#paint0_linear_42_42)"/>
<defs>
<linearGradient id="paint0_linear_42_42" x1="126" y1="77" x2="-6.00001" y2="77" gradientUnits="userSpaceOnUse">
<stop stop-color="#01B0C5"/>
<stop offset="0.744792" stop-color="#02668C"/>
<stop offset="1" stop-color="#025075"/>
</linearGradient>
</defs>
</svg>
