<svg xmlns="http://www.w3.org/2000/svg" xmlns:xlink="http://www.w3.org/1999/xlink" viewBox="0 0 1080 1080"><defs><style>.cls-1{fill:url(#Degradado_sin_nombre_22);}</style><linearGradient id="Degradado_sin_nombre_22" x1="65.03" y1="540" x2="1014.97" y2="540" gradientUnits="userSpaceOnUse"><stop offset="0" stop-color="#9430bf"/><stop offset="0.36" stop-color="#8328af"/><stop offset="1" stop-color="#5d168c"/></linearGradient></defs><g id="Capa_1" data-name="Capa 1"><path class="cls-1" d="M999.36,501.67a55.68,55.68,0,0,0-12-9.36L147.65,7.43C110.9-13.7,65,12.72,65,55.23v969.62a54.2,54.2,0,0,0,16.81,39.63c16.7,16,43,21.25,65.81,8l839.7-484.75a55,55,0,0,0,12-86.1ZM199.52,704a24.83,24.83,0,0,1-24.86,24.86h-4.08a24.85,24.85,0,0,1-25-24.86V376a24.92,24.92,0,0,1,25-24.85h4.08A24.9,24.9,0,0,1,199.52,376Zm113.35-40.34A24.89,24.89,0,0,1,288,688.51h-4.08a24.93,24.93,0,0,1-25-24.85V416.42a25,25,0,0,1,25-25H288a24.93,24.93,0,0,1,24.85,25Zm113.36,61.48A24.9,24.9,0,0,1,401.37,750h-4.08a24.93,24.93,0,0,1-25-24.85V354.94a25,25,0,0,1,25-25h4.08a24.94,24.94,0,0,1,24.86,25Zm113.35-54.52a24.83,24.83,0,0,1-24.86,24.86h-4.08a24.85,24.85,0,0,1-25-24.86V409.33a24.92,24.92,0,0,1,25-24.85h4.08a24.9,24.9,0,0,1,24.86,24.85Zm113.35,25.94a24.92,24.92,0,0,1-24.85,25h-4.21a24.93,24.93,0,0,1-24.85-25V383.4a24.91,24.91,0,0,1,24.85-24.86h4.21a24.9,24.9,0,0,1,24.85,24.86Zm113.36-90.78a24.83,24.83,0,0,1-24.86,24.86h-4.2a24.83,24.83,0,0,1-24.86-24.86V474.3a24.94,24.94,0,0,1,24.86-25h4.2a24.94,24.94,0,0,1,24.86,25Zm113.35-52a24.9,24.9,0,0,1-24.86,24.85h-4.2a24.9,24.9,0,0,1-24.86-24.85v-27.5a24.83,24.83,0,0,1,24.86-24.86h4.2a24.83,24.83,0,0,1,24.86,24.86Z"/></g></svg>